# xmcd CD database file
#
# Track frame offsets:
#	150
#	12293
#	27065
#	42798
#	58731
#	79158
#	94612
#	119845
#	135251
#	155416
#	167693
#	186789
#	204303
#	218562
#
# Disc length: 3268 seconds
#
# Revision: 0
# Processed by: cddbd v1.5.2PL0 Copyright (c) Steve Scherf et al.
# Submitted via: CDex 1.51
#
DISCID=af0cc20e
DTITLE=Andy T - Nick Nixon Band - Numbers Man
DYEAR=2015
DGENRE=Blues
TTITLE0=Shut The Front Door
TTITLE1=Devil's Wife
TTITLE2=Deep Blue Sea
TTITLE3=Tall Drink Of Water
TTITLE4=Numbers Man
TTITLE5=Pretty Girls Everywhere
TTITLE6=Blue Monday
TTITLE7=Hightailin'
TTITLE8=Sundown Blues
TTITLE9=Tell Me What's The Reason
TTITLE10=Be Somebody Some Day
TTITLE11=What Went Wrong
TTITLE12=Gate's Salty Blues
TTITLE13=	 - This World We Live In
EXTD=YEAR: 2015
EXTT0=
EXTT1=
EXTT2=
EXTT3=
EXTT4=
EXTT5=
EXTT6=
EXTT7=
EXTT8=
EXTT9=
EXTT10=
EXTT11=
EXTT12=
EXTT13=
PLAYORDER=
